/* XPM */
static char *result[] = {
/* columns rows colors chars-per-pixel */
"64 64 12 1 ",
"  c #CB9C78",
". c #906E55",
"X c #823D1F",
"o c #B5713E",
"O c #7E4F2B",
"+ c #A5836A",
"@ c gray66",
"# c #403730",
"$ c #5F5F5F",
"% c #393434",
"& c gray44",
"* c gray21",
/* pixels */
"     .X                                              .X         ",
"oooooOX oooooooooooooooooooooooooooooooooooooooooooooOX oooooooo",
"oooooOX oooooooooooooooooooooooooooooooooooooooooooooOX oooooooo",
"oooooOX oooooooooooooooooooooooooooooooooooooooooooooOX oooooooo",
"oooooOX oooooooooooooooooooooooooooooooooooooooooooooOX oooooooo",
"oooooOX oooooooooooooooooooooooooooooooooooooooooooooOX oooooooo",
"oooooOX oooooooooooooooooooooooooooooooooooooooooooooOX oooooooo",
"OOOOOOX+OOOOOOOOOOOOOOOOOOOOOOOOOOOOOOOOOOOOOOOOOOOOOOX+OOOOOOOO",
"XXXXXXXXXXXXXXXXXXXXXXXXXXXXXXXXXXXXXXXXXXXXXXXXXXXXXXXXXXXXXXXX",
"                                    .X                          ",
"ooooooooooooooooooooooooooooooooooooOX ooooooooooooooooooooooooo",
"ooooooooooooooooooooooooooooooooooooOX ooooooooooooooooooooooooo",
"ooooooooooooooooooooooooooooooooooooOX ooooooooooooooooooooooooo",
"oooooooooooooooooooooooooooo@#ooooo@@X$ooooooooooooooooooooooooo",
"ooooooooooooooooooooooooooo#@%ooooo#O@$o@#oooooooooooooooooooooo",
"oooooooooooooooooooooooooo$@#o%%ooo#O$@@&o###ooooooooooooooooooo",
"ooooooooooooooooooooooooo@#@o#%o%%&#$X@o@##o##oooooooooooooooooo",
"oooooooooooooooooooooooo#o@$o#%oo@&$#####@&ooooooooooooooooooooo",
"oooooooooooooooooooooooo#o@#$@%oo@##@X oo@&ooooooooooooooooooooo",
"ooooooooooooooooooooooo#o@@#o@%oo#@@OX o##@####ooooooooooooooooo",
"OOOOOOOOOOOOOOOOOOOOOOO@@@O@#@%O#@@OO###O@@#OOOOOOOOOOOOOOOOOOOO",
"XXXXXXXXXXXXXXXXXXXXXX#X@&@@@@@@#@&##XXX@X#@XXXXXXXXXXXXXXXXXXXX",
"                .X  $** @  @@@@%#@@   @@ #@&                 .X ",
"ooooooooooooooooOX o$#o*@#@#@@@$#o@@@@$oo#@&#ooooooooooooooooOX ",
"ooooooooooooooooOX o&$o&@@##@@$@#@@@@%&$#o@#oooooooooooooooooOX ",
"ooooooooooooooooOX o#$&o@*##o@@@#&o&@&o@##@&@@@@oooooooooooooOX ",
"ooooooooooooooooOX o#$&o@#*#@@@@#&&o@@@##@@@oooo%ooooooooooooOX ",
"ooooooooooooooooOX&#o$o@##*#%&@@#@o@@@#o@$@#oooooooooooooooooOX ",
"ooooooooooooooooOX #$&@@o#@#&#@@##@%o#@@&&@#oooooooooooooooooOX ",
"ooooooooooooooooOX@@@@#@@@&*##@$#@@%o#@o&&@#ooooo%oooooooooooOX ",
"ooooooooooooooooOX#%$#o@%#&&##@$@#o@#@o@&o@$oooooooooooooooooOX ",
"ooooooooooooooooOX #$o&@o&##*#@@$#$%#@o&@@@$oooooo#ooooooooooOX ",
"ooooooooooooooooOX #$&o@%&#&o*#@%###@@&o@@o@$ooooo#ooooooooooOX ",
"OOOOOOOOOOOOOOOOOXO#$&O@O##&O@#@&#$@%@%@@#O@$#####%OOOOOOOOOOOX+",
"XXXXXXXXXXXXXXXXXXX#&$X@@#&#X@###X&@$@@X@##X@XXXXX%XXXXXXXXXXXXX",
" .X              &&# $ @@ #@@ ##@ %@@@##@&X $@    %             ",
"oOX oooooooooooooo#oo$o@#@@&##@#@*&@#@$$@&X $o@$o%oooooooooooooo",
"oOX oooooooooooooo#oo#@@@###o##@#@@*#@@o@$& $o$@o%oooooooooooooo",
"oOX oooooooooooooo##@@###&@&###@#@@@*@@o@&$$$$oo@%oooooooooooooo",
"oOX oooooooooooo##@###@o$$@#oo@@#@#o@@@@@******oo@oooooooooooooo",
"oOX oooooooooooo@##oo#@&o&@$o@oo@##%oo@@o@@@@$ooo%@ooooooooooooo",
"oOX oooooooooooo#o#o#o@&&o@o@$$o##oo$$@@@&X o@@@@%oooooooooooooo",
"oOX oooooooooooooo##&&@&%#@@ooo$$@#$oo%@o$X oo$&&ooooooooooooooo",
"oOX ooooooooooooo&&oooo&o@@%ooo#@@o#ooo@@$% ooo$oooooooooooooooo",
"oOX oooooooooooooooooooooo@o%oo#@@oo##@@@%$ o@oooooooooooooooooo",
"oOX oooooooooooooooooooooooooooo@#oooo#@@@@ oooooooooooooooooooo",
"oOX oooooooooooooooooooooooooooooooooo@#o@@ oooooooooooooooooooo",
"OOX+OOOOOOOOOOOOOOOOOOOOOOOOOOOOOOOOOOOOOOX+OOOOOOOOOOOOOOOOOOOO",
"XXXXXXXXXXXXXXXXXXXXXXXXXXXXXXXXXXXXXXXXXXXXXXXXXXXXXXXXXXXXXXXX",
"                              .X                                ",
"ooooooooooooooooooooooooooooooOX ooooooooooooooooooooooooooooooo",
"ooooooooooooooooooooooooooooooOX ooooooooooooooooooooooooooooooo",
"ooooooooooooooooooooooooooooooOX ooooooooooooooooooooooooooooooo",
"ooooooooooooooooooooooooooooooOX ooooooooooooooooooooooooooooooo",
"ooooooooooooooooooooooooooooooOX ooooooooooooooooooooooooooooooo",
"ooooooooooooooooooooooooooooooOX ooooooooooooooooooooooooooooooo",
"ooooooooooooooooooooooooooooooOX ooooooooooooooooooooooooooooooo",
"ooooooooooooooooooooooooooooooOX ooooooooooooooooooooooooooooooo",
"ooooooooooooooooooooooooooooooOX ooooooooooooooooooooooooooooooo",
"ooooooooooooooooooooooooooooooOX ooooooooooooooooooooooooooooooo",
"ooooooooooooooooooooooooooooooOX ooooooooooooooooooooooooooooooo",
"ooooooooooooooooooooooooooooooOX ooooooooooooooooooooooooooooooo",
"OOOOOOOOOOOOOOOOOOOOOOOOOOOOOOOX+OOOOOOOOOOOOOOOOOOOOOOOOOOOOOOO",
"XXXXXXXXXXXXXXXXXXXXXXXXXXXXXXXXXXXXXXXXXXXXXXXXXXXXXXXXXXXXXXXX"
};
