/* XPM */
static char *result[] = {
/* columns rows colors chars-per-pixel */
"220 50 3 1 ",
"  c black",
". c #2EB871",
"X c #81BD00",
/* pixels */
"XX..XX..XX..XX..XX..XX..XX..XX..XX..XX..XX..XX..XX..XX..XX..XX..XX..XX..XX..XX..XX..XX..XX..XX..XX..XX..XX..XX....XX..XX..XX..XX..XX..XX..XX..XX..XX..XX..XX..XX..XX..XX..XX..XX..XX..XX..XX..XX..XX..XX..XX..XX..XX..XX..XX",
"XX..XX..XX..XX..XX..XX..XX..XX..XX..XX..XX..XX..XX..XX..XX..XX..XX..XX..XX..XX..XX..XX..XX..XX..XX..XX..XX..XX....XX..XX..XX..XX..XX..XX..XX..XX..XX..XX..XX..XX..XX..XX..XX..XX..XX..XX..XX..XX..XX..XX..XX..XX..XX..XX..XX",
"............................................................................................................................................................................................................................",
"............................................................................................................................................................................................................................",
"X...                                                                                                                                                                                                                    ..XX",
"X...                                                                                                                                                                                                                    ..XX",
"....                                                                                                                                                                                                                    ....",
"....                                                                                                                                                                                                                    ....",
"X...                                                                                                                                                                                                                    ..XX",
"X...                                                                                                                                                                                                                    ..XX",
"....                                                                                                                                                                                                                    ....",
"....                                                                                                                                                                                                                    ....",
"X...                                                                                                                                                                                                                    ..XX",
"X...                                                                                                                                                                                                                    ..XX",
"....                                                                                                                                                                                                                    ....",
"....                                                                                                                                                                                                                    ....",
"X...                                                                                                                                                                                                                    ..XX",
"X...                                                                                                                                                                                                                    ..XX",
"....                                                                                                                                                                                                                    ....",
"....                                                                                                                                                                                                                    ....",
"X...                                                                                                                                                                                                                    ..XX",
"X...                                                                                                                                                                                                                    ..XX",
"....                                                                                                                                                                                                                    ....",
"....                                                                                                                                                                                                                    ....",
"X...                                                                                                                                                                                                                    ..XX",
"X...                                                                                                                                                                                                                    ..XX",
"....                                                                                                                                                                                                                    ....",
"....                                                                                                                                                                                                                    ....",
"X...                                                                                                                                                                                                                    ..XX",
"X...                                                                                                                                                                                                                    ..XX",
"....                                                                                                                                                                                                                    ....",
"....                                                                                                                                                                                                                    ....",
"X...                                                                                                                                                                                                                    ..XX",
"X...                                                                                                                                                                                                                    ..XX",
"....                                                                                                                                                                                                                    ....",
"....                                                                                                                                                                                                                    ....",
"X...                                                                                                                                                                                                                    ..XX",
"X...                                                                                                                                                                                                                    ..XX",
"....                                                                                                                                                                                                                    ....",
"....                                                                                                                                                                                                                    ....",
"X...                                                                                                                                                                                                                    ..XX",
"X...                                                                                                                                                                                                                    ..XX",
"....                                                                                                                                                                                                                    ....",
"....                                                                                                                                                                                                                    ....",
"X...                                                                                                                                                                                                                    ..XX",
"X...                                                                                                                                                                                                                    ..XX",
"............................................................................................................................................................................................................................",
"............................................................................................................................................................................................................................",
"XX..XX..XX..XX..XX..XX..XX..XX..XX..XX..XX..XX..XX..XX..XX..XX..XX..XX..XX..XX..XX..XX..XX..XX..XX..XX..XX..XX....XX..XX..XX..XX..XX..XX..XX..XX..XX..XX..XX..XX..XX..XX..XX..XX..XX..XX..XX..XX..XX..XX..XX..XX..XX..XX..XX",
"XX..XX..XX..XX..XX..XX..XX..XX..XX..XX..XX..XX..XX..XX..XX..XX..XX..XX..XX..XX..XX..XX..XX..XX..XX..XX..XX..XX....XX..XX..XX..XX..XX..XX..XX..XX..XX..XX..XX..XX..XX..XX..XX..XX..XX..XX..XX..XX..XX..XX..XX..XX..XX..XX..XX"
};
