/* XPM */
static char *result[] = {
/* columns rows colors chars-per-pixel */
"64 64 4 1 ",
"  c black",
". c #4C2B1C",
"X c #6D3E29",
"o c #9C5A3C",
/* pixels */
"oooooooooooooooooooooooooooooooooooooooooooooooooooooooooooooooo",
"oooooooooooooooooooooooooooooooooooooooooooooooooooooooooooooooo",
"ooXXXXXXXXXXXXXXXXXXXXXXXXXXXXXXXXXXXXXXXXXXXXXXXXXXXXXXXXXXXXoo",
"ooX..........................................................Xoo",
"ooX... .. .. .. .. .. .. .. .. .. .. .. .. .. .. .. .. .. ...Xoo",
"ooX... .. .. .. .. .. .. .. .. .. .. .. .. .. .. .. .. .. ...Xoo",
"ooX.  .  .  .  .  .  .  .  .  .  .  .  .  .  .  .  .  .  .  .Xoo",
"ooX... .. .. .. .. .. .. .. .. .. .. .. .. .. .. .. .. .. ...Xoo",
"ooX... .. .. .. .. .. .. .. .. .. .. .. .. .. .. .. .. .. ...Xoo",
"ooX.  .  .  .  .  .  .  .  .  .  .  .  .  .  .  .  .  .  .  .Xoo",
"ooX... .. .. .. .. .. .. .. .. .. .. .. .. .. .. .. .. .. ...Xoo",
"ooX... .. .. .. .. .. .. .. .. .. .. .. .. .. .. .. .. .. ...Xoo",
"ooX.  .  .  .  .  .  .  .  .  .  .  .  .  .  .  .  .  .  .  .Xoo",
"ooX... .. .. .. .. .. .. .. .. .. .. .. .. .. .. .. .. .. ...Xoo",
"ooX... .. .. .. .. .. .. .. .. .. .. .. .. .. .. .. .. .. ...Xoo",
"ooX.  .  .  .  .  .  .  .  .  .  .  .  .  .  .  .  .  .  .  .Xoo",
"ooX... .. .. .. .. .. .. .. .. .. .. .. .. .. .. .. .. .. ...Xoo",
"ooX... .. .. .. .. .. .. .. .. .. .. .. .. .. .. .. .. .. ...Xoo",
"ooX.  .  .  .  .  .  .  .  .  .  .  .  .  .  .  .  .  .  .  .Xoo",
"ooX... .. .. .. .. .. .. .. .. .. .. .. .. .. .. .. .. .. ...Xoo",
"ooX... .. .. .. .. .. .. .. .. .. .. .. .. .. .. .. .. .. ...Xoo",
"ooX.  .  .  .  .  .  .  .  .  .  .  .  .  .  .  .  .  .  .  .Xoo",
"ooX... .. .. .. .. .. .. .. .. .. .. .. .. .. .. .. .. .. ...Xoo",
"ooX... .. .. .. .. .. .. .. .. .. .. .. .. .. .. .. .. .. ...Xoo",
"ooX.  .  .  .  .  .  .  .  .  .  .  .  .  .  .  .  .  .  .  .Xoo",
"ooX... .. .. .. .. .. .. .. .. .. .. .. .. .. .. .. .. .. ...Xoo",
"ooX... .. .. .. .. .. .. .. .. .. .. .. .. .. .. .. .. .. ...Xoo",
"ooX.  .  .  .  .  .  .  .  .  .  .  .  .  .  .  .  .  .  .  .Xoo",
"ooX... .. .. .. .. .. .. .. .. .. .. .. .. .. .. .. .. .. ...Xoo",
"ooX... .. .. .. .. .. .. .. .. .. .. .. .. .. .. .. .. .. ...Xoo",
"ooX.  .  .  .  .  .  .  .  .  .  .  .  .  .  .  .  .  .  .  .Xoo",
"ooX... .. .. .. .. .. .. .. .. .. .. .. .. .. .. .. .. .. ...Xoo",
"ooX... .. .. .. .. .. .. .. .. .. .. .. .. .. .. .. .. .. ...Xoo",
"ooX.  .  .  .  .  .  .  .  .  .  .  .  .  .  .  .  .  .  .  .Xoo",
"ooX... .. .. .. .. .. .. .. .. .. .. .. .. .. .. .. .. .. ...Xoo",
"ooX... .. .. .. .. .. .. .. .. .. .. .. .. .. .. .. .. .. ...Xoo",
"ooX.  .  .  .  .  .  .  .  .  .  .  .  .  .  .  .  .  .  .  .Xoo",
"ooX... .. .. .. .. .. .. .. .. .. .. .. .. .. .. .. .. .. ...Xoo",
"ooX... .. .. .. .. .. .. .. .. .. .. .. .. .. .. .. .. .. ...Xoo",
"ooX.  .  .  .  .  .  .  .  .  .  .  .  .  .  .  .  .  .  .  .Xoo",
"ooX... .. .. .. .. .. .. .. .. .. .. .. .. .. .. .. .. .. ...Xoo",
"ooX... .. .. .. .. .. .. .. .. .. .. .. .. .. .. .. .. .. ...Xoo",
"ooX.  .  .  .  .  .  .  .  .  .  .  .  .  .  .  .  .  .  .  .Xoo",
"ooX... .. .. .. .. .. .. .. .. .. .. .. .. .. .. .. .. .. ...Xoo",
"ooX... .. .. .. .. .. .. .. .. .. .. .. .. .. .. .. .. .. ...Xoo",
"ooX.  .  .  .  .  .  .  .  .  .  .  .  .  .  .  .  .  .  .  .Xoo",
"ooX... .. .. .. .. .. .. .. .. .. .. .. .. .. .. .. .. .. ...Xoo",
"ooX... .. .. .. .. .. .. .. .. .. .. .. .. .. .. .. .. .. ...Xoo",
"ooX.  .  .  .  .  .  .  .  .  .  .  .  .  .  .  .  .  .  .  .Xoo",
"ooX... .. .. .. .. .. .. .. .. .. .. .. .. .. .. .. .. .. ...Xoo",
"ooX... .. .. .. .. .. .. .. .. .. .. .. .. .. .. .. .. .. ...Xoo",
"ooX.  .  .  .  .  .  .  .  .  .  .  .  .  .  .  .  .  .  .  .Xoo",
"ooX... .. .. .. .. .. .. .. .. .. .. .. .. .. .. .. .. .. ...Xoo",
"ooX... .. .. .. .. .. .. .. .. .. .. .. .. .. .. .. .. .. ...Xoo",
"ooX.  .  .  .  .  .  .  .  .  .  .  .  .  .  .  .  .  .  .  .Xoo",
"ooX... .. .. .. .. .. .. .. .. .. .. .. .. .. .. .. .. .. ...Xoo",
"ooX... .. .. .. .. .. .. .. .. .. .. .. .. .. .. .. .. .. ...Xoo",
"ooX.  .  .  .  .  .  .  .  .  .  .  .  .  .  .  .  .  .  .  .Xoo",
"ooX... .. .. .. .. .. .. .. .. .. .. .. .. .. .. .. .. .. ...Xoo",
"ooX... .. .. .. .. .. .. .. .. .. .. .. .. .. .. .. .. .. ...Xoo",
"ooX..........................................................Xoo",
"ooXXXXXXXXXXXXXXXXXXXXXXXXXXXXXXXXXXXXXXXXXXXXXXXXXXXXXXXXXXXXoo",
"oooooooooooooooooooooooooooooooooooooooooooooooooooooooooooooooo",
"oooooooooooooooooooooooooooooooooooooooooooooooooooooooooooooooo"
};
