/* XPM */
static char *result[] = {
/* columns rows colors chars-per-pixel */
"64 64 13 1 ",
"  c #CB9C78",
". c #906E55",
"X c #823D1F",
"o c #B5713E",
"O c #7E4F2B",
"+ c black",
"@ c #A5836A",
"# c #B4B4B4",
"$ c #7EE3FC",
"% c #990030",
"& c #A8E61D",
"* c #ED1C24",
"= c #808080",
/* pixels */
"     .X                                              .X         ",
"oooooOX oooooooooooooooooooooooooooooooooooooooooooooOX oooooooo",
"oooooOX oooooooooooooooooooooooooooooooooooooooooooooOX oooooooo",
"oooooOX oooooooooooooooooooooooooooooooooooooooooooooOX oooooooo",
"oooooOX oooooooooooooooooooooooooooooooooooooooooooooOX oooooooo",
"oooooOX oooooooooooooooooooooooooooooooooooooooooooooOX oooooooo",
"oooooOX ooooooooooooooooooo+++++++++++oooooooooooooooOX oooooooo",
"OOOOOOX@OOOOOOOOOOOOOOO++++###########++++OOOOOOOOOOOOX@OOOOOOOO",
"XXXXXXXXXXXXXXXXXXXX+++###################+++XXXXXXXXXXXXXXXXXXX",
"                  ++#########################++                 ",
"ooooooooooooooooo+#########+++++++++++#########+oooooooooooooooo",
"ooooooooooooooo++########++$$$$$$$$$$$++########++oooooooooooooo",
"oooooooooooooo+#########+$$$$$$$$$$$$$$$+#########+ooooooooooooo",
"ooooooooooooo+#########+$$$$$$$$$$$$$$$$$+#########+oooooooooooo",
"oooooooooooo+#########+$$$$$$$$$$$$$$$$$$$+#########+ooooooooooo",
"ooooooooooo+##########+$$$$++++$$$++++$$$$+##########+oooooooooo",
"ooooooooooo+##########+$$$$$$$$$$$$$$$$$$$+##########+oooooooooo",
"oooooooooo+###########+$$$$$$$$$$$$$$$$$$$+###########+ooooooooo",
"ooooooooo+#############+$$$$$$$$$$$$$$$$$+#############+oooooooo",
"ooooooooo+##############+$$$$$$$$$$$$$$$+##############+oooooooo",
"OOOOOOOOO+###############++$$$$$$$$$$$++###############+OOOOOOOO",
"XXXXXXXX+##################+++++++++++##################+XXXXXXX",
"        +###############################################+    .X ",
"oooooooo+###############################################+ooooOX ",
"oooooooo+######################################%%%######+ooooOX ",
"oooooooo+#####&#&#&#&#########################%***%#####+ooooOX ",
"oooooooo+#####&#&#&###########################%*+*%#####+ooooOX ",
"oooooooo+#####&#&#############################%***%#####+ooooOX ",
"oooooooo++####&################################%%%#####++ooooOX ",
"oooooooo++#############################################++ooooOX ",
"oooooooo++#############################################++ooooOX ",
"oooooooo+=+###########################################+=+ooooOX ",
"oooooooo+==+#########################################+==+ooooOX ",
"OOOOOOOO+==+#########################################+==+OOOOOX@",
"XXXXXXXX+===+#######################################+===+XXXXXXX",
" .X     +====+#####################################+====+       ",
"oOX oooo+=====+###################################+=====+ooooooo",
"oOX oooo+======++###############################++======+ooooooo",
"oOX oooo+========+#############################+========+ooooooo",
"oOX oooo+=========++#########################++=========+ooooooo",
"oOX oooo+===========+++###################+++===========+ooooooo",
"oOX oooo+==============++++###########++++==============+ooooooo",
"oOX ooooo+=================+++++++++++==================+ooooooo",
"oOX ooooo+=============================================+oooooooo",
"oOX oooooo+===========================================+ooooooooo",
"oOX ooooooo+==========================================+ooooooooo",
"oOX ooooooo+=========================================+oooooooooo",
"OOX@OOOOOOOO+=======================================+OOOOOOOOOOO",
"XXXXXXXXXXXXX+=====================================+XXXXXXXXXXXX",
"              +===================================+             ",
"ooooooooooooooo++===============================++oooooooooooooo",
"ooooooooooooooo+++=============================+++oooooooooooooo",
"oooooooooooooooo++++=========================++++ooooooooooooooo",
"oooooooooooooooooooo+++===================+++ooooooooooooooooooo",
"ooooooooooooooooooooooo++++===========++++oooooooooooooooooooooo",
"ooooooooooooooooooooooooooo+++++++++++oooooooooooooooooooooooooo",
"ooooooooooooooooooooooooooooooOX ooooooooooooooooooooooooooooooo",
"ooooooooooooooooooooooooooooooOX ooooooooooooooooooooooooooooooo",
"ooooooooooooooooooooooooooooooOX ooooooooooooooooooooooooooooooo",
"ooooooooooooooooooooooooooooooOX ooooooooooooooooooooooooooooooo",
"ooooooooooooooooooooooooooooooOX ooooooooooooooooooooooooooooooo",
"ooooooooooooooooooooooooooooooOX ooooooooooooooooooooooooooooooo",
"OOOOOOOOOOOOOOOOOOOOOOOOOOOOOOOX@OOOOOOOOOOOOOOOOOOOOOOOOOOOOOOO",
"XXXXXXXXXXXXXXXXXXXXXXXXXXXXXXXXXXXXXXXXXXXXXXXXXXXXXXXXXXXXXXXX"
};
