/* XPM */
static char *result[] = {
/* columns rows colors chars-per-pixel */
"64 64 13 1 ",
"  c #CB9C78",
". c #906E55",
"X c #823D1F",
"o c #B5713E",
"O c #7E4F2B",
"+ c black",
"@ c #B4B4B4",
"# c #A5836A",
"$ c #7EE3FC",
"% c #990030",
"& c #A8E61D",
"* c #ED1C24",
"= c #808080",
/* pixels */
"     .X                                              .X         ",
"oooooOX oooooooooooooooooooooooooooooooooooooooooooooOX oooooooo",
"oooooOX oooooooooooooooooooooooooooooooooooooooooooooOX oooooooo",
"oooooOX oooooooooooooooooooooooooooooooooooooooooooooOX oooooooo",
"oooooOX ooooooooooooooooooo+++++++++++oooooooooooooooOX oooooooo",
"oooooOX ooooooooooooooo++++@@@@@@@@@@@++++oooooooooooOX oooooooo",
"oooooOX oooooooooooo+++@@@@@@@@@@@@@@@@@@@+++ooooooooOX oooooooo",
"OOOOOOX#OOOOOOOOOO++@@@@@@@@@@@@@@@@@@@@@@@@@++OOOOOOOX#OOOOOOOO",
"XXXXXXXXXXXXXXXXX+@@@@@@@@@+++++++++++@@@@@@@@@+XXXXXXXXXXXXXXXX",
"               ++@@@@@@@@++$$$$$$$$$$$++@@@@@@@@++              ",
"oooooooooooooo+@@@@@@@@@+$$$$$$$$$$$$$$$+@@@@@@@@@+ooooooooooooo",
"ooooooooooooo+@@@@@@@@@+$$$$$$$$$$$$$$$$$+@@@@@@@@@+oooooooooooo",
"oooooooooooo+@@@@@@@@@+$$$$$$$$$$$$$$$$$$$+@@@@@@@@@+ooooooooooo",
"ooooooooooo+@@@@@@@@@@+$$$$++++$$$++++$$$$+@@@@@@@@@@+oooooooooo",
"ooooooooooo+@@@@@@@@@@+$$$$$$$$$$$$$$$$$$$+@@@@@@@@@@+oooooooooo",
"oooooooooo+@@@@@@@@@@@+$$$$$$$$$$$$$$$$$$$+@@@@@@@@@@@+ooooooooo",
"ooooooooo+@@@@@@@@@@@@@+$$$$$$$$$$$$$$$$$+@@@@@@@@@@@@@+oooooooo",
"ooooooooo+@@@@@@@@@@@@@@+$$$$$$$$$$$$$$$+@@@@@@@@@@@@@@+oooooooo",
"ooooooooo+@@@@@@@@@@@@@@@++$$$$$$$$$$$++@@@@@@@@@@@@@@@+oooooooo",
"oooooooo+@@@@@@@@@@@@@@@@@@+++++++++++@@@@@@@@@@@@@@@@@@+ooooooo",
"OOOOOOOO+@@@@@@@@@@@@@@@@@@@@@@@@@@@@@@@@@@@@@@@@@@@@@@@+OOOOOOO",
"XXXXXXXX+@@@@@@@@@@@@@@@@@@@@@@@@@@@@@@@@@@@@@@@@@@@@@@@+XXXXXXX",
"        +@@@@@@@@@@@@@@@@@@@@@@@@@@@@@@@@@@@@@@%%%@@@@@@+    .X ",
"oooooooo+@@@@@&@&@&@&@@@@@@@@@@@@@@@@@@@@@@@@@%***%@@@@@+ooooOX ",
"oooooooo+@@@@@&@&@&@@@@@@@@@@@@@@@@@@@@@@@@@@@%*+*%@@@@@+ooooOX ",
"oooooooo+@@@@@&@&@@@@@@@@@@@@@@@@@@@@@@@@@@@@@%***%@@@@@+ooooOX ",
"oooooooo++@@@@&@@@@@@@@@@@@@@@@@@@@@@@@@@@@@@@@%%%@@@@@++ooooOX ",
"oooooooo++@@@@@@@@@@@@@@@@@@@@@@@@@@@@@@@@@@@@@@@@@@@@@++ooooOX ",
"oooooooo++@@@@@@@@@@@@@@@@@@@@@@@@@@@@@@@@@@@@@@@@@@@@@++ooooOX ",
"oooooooo+=+@@@@@@@@@@@@@@@@@@@@@@@@@@@@@@@@@@@@@@@@@@@+=+ooooOX ",
"oooooooo+==+@@@@@@@@@@@@@@@@@@@@@@@@@@@@@@@@@@@@@@@@@+==+ooooOX ",
"oooooooo+==+@@@@@@@@@@@@@@@@@@@@@@@@@@@@@@@@@@@@@@@@@+==+ooooOX ",
"oooooooo+===+@@@@@@@@@@@@@@@@@@@@@@@@@@@@@@@@@@@@@@@+===+ooooOX ",
"OOOOOOOO+====+@@@@@@@@@@@@@@@@@@@@@@@@@@@@@@@@@@@@@+====+OOOOOX#",
"XXXXXXXX+=====+@@@@@@@@@@@@@@@@@@@@@@@@@@@@@@@@@@@+=====+XXXXXXX",
" .X     +======++@@@@@@@@@@@@@@@@@@@@@@@@@@@@@@@++======+       ",
"oOX oooo+========+@@@@@@@@@@@@@@@@@@@@@@@@@@@@@+========+ooooooo",
"oOX oooo+=========++@@@@@@@@@@@@@@@@@@@@@@@@@++=========+ooooooo",
"oOX oooo+===========+++@@@@@@@@@@@@@@@@@@@+++===========+ooooooo",
"oOX oooo+==============++++@@@@@@@@@@@++++==============+ooooooo",
"oOX ooooo+=================+++++++++++==================+ooooooo",
"oOX ooooo+=============================================+oooooooo",
"oOX oooooo+===========================================+ooooooooo",
"oOX ooooooo+==========================================+ooooooooo",
"oOX ooooooo+=========================================+oooooooooo",
"oOX oooooooo+=======================================+ooooooooooo",
"oOX ooooooooo+=====================================+oooooooooooo",
"OOX#OOOOOOOOOO+===================================+OOOOOOOOOOOOO",
"XXXXXXXXXXXXXXX++===============================++XXXXXXXXXXXXXX",
"               +++=============================+++              ",
"ooooooooooooooo+++++=========================+++++oooooooooooooo",
"ooooooooooooooo++++o+++===================+++o++++oooooooooooooo",
"oooooooooooooooo++ooooo++++===========++++ooooo++ooooooooooooooo",
"ooooooooooooooooooooooooooo+++++++++++oooooooooooooooooooooooooo",
"ooooooooooooooooooooooooooooooOX ooooooooooooooooooooooooooooooo",
"ooooooooooooooooooooooooooooooOX ooooooooooooooooooooooooooooooo",
"ooooooooooooooooooooooooooooooOX ooooooooooooooooooooooooooooooo",
"ooooooooooooooooooooooooooooooOX ooooooooooooooooooooooooooooooo",
"ooooooooooooooooooooooooooooooOX ooooooooooooooooooooooooooooooo",
"ooooooooooooooooooooooooooooooOX ooooooooooooooooooooooooooooooo",
"ooooooooooooooooooooooooooooooOX ooooooooooooooooooooooooooooooo",
"ooooooooooooooooooooooooooooooOX ooooooooooooooooooooooooooooooo",
"OOOOOOOOOOOOOOOOOOOOOOOOOOOOOOOX#OOOOOOOOOOOOOOOOOOOOOOOOOOOOOOO",
"XXXXXXXXXXXXXXXXXXXXXXXXXXXXXXXXXXXXXXXXXXXXXXXXXXXXXXXXXXXXXXXX"
};
