/* XPM */
static char *result[] = {
/* columns rows colors chars-per-pixel */
"64 64 12 1 ",
"  c #CB9C78",
". c #906E55",
"X c #823D1F",
"o c #B5713E",
"O c #7E4F2B",
"+ c #A5836A",
"@ c #5C2500",
"# c #FA5C00",
"$ c #FC97FC",
"% c black",
"& c white",
"* c #53B046",
/* pixels */
"     .X                                              .X         ",
"oooooOX oooooooooooooooooooooooooooooooooooooooooooooOX oooooooo",
"oooooOX oooooooooooooooooooooooooooooooooooooooooooooOX oooooooo",
"oooooOX oooooooooooooooooooooooooooooooooooooooooooooOX oooooooo",
"oooooOX oooooooooooooooooooooooooooooooooooooooooooooOX oooooooo",
"oooooOX oooooooooooooooooooooooooooooooooooooooooooooOX oooooooo",
"oooooOX oooooooooooooooooooooooooooooooooooooooooooooOX oooooooo",
"OOOOOOX+OOOOOOOOOOOOOOOOOOOOOOOOOOOOOOOOOOOOOOOOOOOOOOX+OOOOOOOO",
"XXXXXXXXXXXXXXXXXXXXXXXXXXXXXXXXXXXXXXXXXXXXXXXXXXXXXXXXXXXXXXXX",
"             @             @        .X                          ",
"oooooooooooo@@oooooooooooo@#@oooooooOX ooooooooooooooooooooooooo",
"oooooooooooo@#@oooooooooo@##@oooooooOX ooooooooooooooooooooooooo",
"oooooooooooo@##@oooooooo@##$@oooooooOX ooooooooooooooooooooooooo",
"oooooooooooo@#$$@oooooo@##$$@oooooooOX ooooooooooo@@@ooooooooooo",
"oooooooooooo@#$$@oo@@@@@#$$$@oooooooOX oooooooooo@##@ooooooooooo",
"oooooooooooo@#$$@@@#####@@$$#@ooooooOX ooooooooo@####@oooooooooo",
"oooooooooooo@#$@@#########@@#@ooooooOX oooooooooo@####@ooooooooo",
"oooooooooooo@#@#############@@ooooooOX ooooooooooo@####@oooooooo",
"oooooooooooo@#@#############@@ooooooOX oooooooooooo@####@ooooooo",
"oooooooooooo@@###############@oo%oooOX ooooooooooooo@###@ooooooo",
"OOOOOOOOOOOO@@###&**###**&###@O%OOOOOX+OOOOOOOOOOOOOO@##@OOOOOOO",
"XXXXXXXXXX%X@####*%*###*%*###%%XXXXXXXXXXXXXXXXXXXXXX@##@XXXXXXX",
"           %%####***###***##%#@                      @###@   .X ",
"oooooooooooo@%%############%##@oo%%oooooooooooooooooo@###@oooOX ",
"oooooooooooo@##%%###$$$##%%##%%%%oooooooooooooooooooo@##@ooooOX ",
"ooooooooo%%%%%###%%##$##%%%%%#@oooooooooooooooooooooo@##@ooooOX ",
"ooooooooooooo@%%%%%%###%%####@ooooooooooooooooooooooo@##@ooooOX ",
"ooooooooooooo@#######@#######@@@@@@oooooooooooooooooo@##@ooooOX ",
"oooooooooooooo@####@@#@@####@@#####@@oooooooooooooooo@##@ooooOX ",
"oooooooooooooo@############@@########@ooooooooooooooo@##@ooooOX ",
"ooooooooooooooo@@#########@@##########@oooooooooooooo@##@ooooOX ",
"ooooooooooooooooO@@#####@@#############@ooooooooooooo@##@ooooOX ",
"ooooooooooooooooOX @@@@@@###############@ooooooooooo@###@ooooOX ",
"OOOOOOOOOOOOOOOOOXOO@###################@OOOOOOOOOOO@###@OOOOOX+",
"XXXXXXXXXXXXXXXXXXXX@####################@XXXXXXXXXX@###@XXXXXXX",
" .X                 @####################@X         @###@       ",
"oOX oooooooooooooooo@#####################@ oooooooo@###@ooooooo",
"oOX oooooooooooooooo@#####################@ oooooooo@##@oooooooo",
"oOX oooooooooooooooo@###@#################@ ooooooo@###@oooooooo",
"oOX oooooooooooooooo@###@#################@ ooooooo@###@oooooooo",
"oOX oooooooooooooooo@##@##################@ ooooooo@##@ooooooooo",
"oOX oooooooooooooooo@##@##################@ oooooo@###@ooooooooo",
"oOX ooooooooooooooo@###@#####@@@@#########@ oooooo@###@ooooooooo",
"oOX ooooooooooooooo@###@####@####@########@ ooooo@####@ooooooooo",
"oOX ooooooooooooooo@###@###@######@#######@ oooo@####@oooooooooo",
"oOX ooooooooooooooo@##@@##@########@#####@X oooo@####@oooooooooo",
"oOX ooooooooooooooo@##@@#@###############@X ooo@####@ooooooooooo",
"OOX+OOOOOOOOOOOOOOO@##@O@###############@OX+OO@####@OOOOOOOOOOOO",
"XXXXXXXXXXXXXXXXXXX@##@X@###############@XXXX@####@XXXXXXXXXXXXX",
"                   @##@  @#############@@@@@@####@              ",
"ooooooooooooooooooo@##@ooo@###########@#########@ooooooooooooooo",
"oooooooooooooooo@@@###@oo@@@#########@#######@@@oooooooooooooooo",
"ooooooooooooooo@######@o@###@@#####@@@@@@@@@@ooooooooooooooooooo",
"ooooooooooooooo@######@@######@@@@@ooooooooooooooooooooooooooooo",
"oooooooooooooooo@###@@oo@@@@@@@@@@oooooooooooooooooooooooooooooo",
"ooooooooooooooooo@@@ooooooooooOX ooooooooooooooooooooooooooooooo",
"ooooooooooooooooooooooooooooooOX ooooooooooooooooooooooooooooooo",
"ooooooooooooooooooooooooooooooOX ooooooooooooooooooooooooooooooo",
"ooooooooooooooooooooooooooooooOX ooooooooooooooooooooooooooooooo",
"ooooooooooooooooooooooooooooooOX ooooooooooooooooooooooooooooooo",
"ooooooooooooooooooooooooooooooOX ooooooooooooooooooooooooooooooo",
"ooooooooooooooooooooooooooooooOX ooooooooooooooooooooooooooooooo",
"OOOOOOOOOOOOOOOOOOOOOOOOOOOOOOOX+OOOOOOOOOOOOOOOOOOOOOOOOOOOOOOO",
"XXXXXXXXXXXXXXXXXXXXXXXXXXXXXXXXXXXXXXXXXXXXXXXXXXXXXXXXXXXXXXXX"
};
