/* XPM */
static char *result[] = {
/* columns rows colors chars-per-pixel */
"64 64 108 2 ",
"   c #CB9C78",
".  c #906E55",
"X  c #823D1F",
"o  c #B5713E",
"O  c #7E4F2B",
"+  c #A5836A",
"@  c #C9A080",
"#  c #865D3D",
"$  c #B7835C",
"%  c #B67A4E",
"&  c #BBAB9E",
"*  c #A09083",
"=  c #B89073",
"-  c #BA9C85",
";  c #B8AFA9",
":  c #B6A396",
">  c #B4B4B4",
",  c #808080",
"<  c #B49C8A",
"1  c #B8B1AC",
"2  c #987D68",
"3  c #8D694E",
"4  c #BFBEBE",
"5  c #7E634E",
"6  c #B1ABA6",
"7  c #A79A90",
"8  c gray71",
"9  c #905B45",
"0  c #9A7261",
"q  c #BFBEBD",
"w  c #9F9F9F",
"e  c #9A9A9A",
"r  c #B1A9A5",
"t  c #B3ACA9",
"y  c #AC9E97",
"u  c #894D33",
"i  c #A59087",
"p  c #C7A488",
"a  c #C0BFBF",
"s  c #C5A995",
"d  c #BAB5B1",
"f  c gray53",
"g  c #555555",
"h  c #B5B5B4",
"j  c #A89383",
"k  c gray65",
"l  c #9B9B9B",
"z  c #BBB9B7",
"x  c #BAB4AF",
"c  c #AFAFAF",
"v  c gray57",
"b  c gray67",
"n  c #7E7E7E",
"m  c #AFA9A5",
"M  c #B3B1AF",
"N  c #909090",
"B  c gray33",
"V  c #464646",
"C  c #B4B1AE",
"Z  c gray37",
"A  c #AAA9A9",
"S  c #A49991",
"D  c #6D6D6D",
"F  c gray70",
"G  c #B7AFAA",
"H  c #B3B0AE",
"J  c #ACACAC",
"K  c gray59",
"L  c gray32",
"P  c #B4B3B3",
"I  c #B7B5B4",
"U  c #A9A9A9",
"Y  c #AEAEAE",
"T  c #626262",
"R  c #AFA9A4",
"E  c #B08D73",
"W  c #BAB7B5",
"Q  c #C0987B",
"!  c gray55",
"~  c #B6B6B6",
"^  c gray66",
"/  c #929292",
"(  c #494949",
")  c #BAB4B0",
"_  c gray38",
"`  c #B7AEA8",
"'  c gray69",
"]  c #AAAAAA",
"[  c #A7A7A7",
"{  c #4C4C4C",
"}  c #B5AFAA",
"|  c #91908F",
" . c gray46",
".. c #A8958D",
"X. c #C0BEBC",
"o. c #B2B2B2",
"O. c #565555",
"+. c #B8B0AB",
"@. c #ABAAAA",
"#. c #C9C9C8",
"$. c #969695",
"%. c #B5B4B4",
"&. c #564D47",
"*. c #A86C40",
"=. c #B5A090",
"-. c #6D655E",
";. c #B7B6B5",
":. c #A5A5A5",
/* pixels */
"          . X                                                                                             . X                   ",
"o o o o o O X   o o o o o o o o o o o o o o o o o o o o o o o o o o o o o o o o o o o o o o o o o o o o o O X   o o o o o o o o ",
"o o o o o O X   o o o o o o o o o o o o o o o o o o o o o o o o o o o o o o o o o o o o o o o o o o o o o O X   o o o o o o o o ",
"o o o o o O X   o o o o o o o o o o o o o o o o o o o o o o o o o o o o o o o o o o o o o o o o o o o o o O X   o o o o o o o o ",
"o o o o o O X   o o o o o o o o o o o o o o o o o o o o o o o o o o o o o o o o o o o o o o o o o o o o o O X   o o o o o o o o ",
"o o o o o O X   o o o o o o o o o o o o o o o o o o o o o o o o o o o o o o o o o o o o o o o o o o o o o O X   o o o o o o o o ",
"o o o o o O X   o o o o o o o o o o o o o o o o o o o o o o o o o o o o o o o o o o o o o o o o o o o o o O X   o o o o o o o o ",
"O O O O O O X + O O O O O O O O O O O O O O O O O O O O O O O O O O O O O O O O O O O O O O O O O O O O O O X + O O O O O O O O ",
"X X X X X X X X X X X X X X X X X X X X X X X X X X X X X X X X X X X X X X X X X X X X X X X X X X X X X X X X X X X X X X X X ",
"                                                                        . X                                                     ",
"o o o o o o o o o o o o o o o o o o o o o o o o o o o o o o o o o o o o O X   o o o o o o o o o o o o o o o o o o o o o o o o o ",
"o o o o o o o o o o o o o o o o o o o o o o o o o o o o o o o o o o o o O X   o o o o o o o o o o o o o o o o o o o o o o o o o ",
"o o o o o o o o o o o o o o o o o o o o o o o o o o o o o o o o o o o o O X   o o o o o o o o o o o o o o o o o o o o o o o o o ",
"o o o o o o o o o o o o o o o o o o o o o o o o o o o o o o o o o o o o O X   o o o o o o o o o o o o o o o o o o o o o o o o o ",
"o o o o o o o o o o o o o o o o o o o o o o o o o o o o o o o o o o o o O X @ o o o o o o o o o o o o o o o o o o o o o o o o o ",
"o o o o o o o o o o o o o o o o o o o o o o o o o o o o o o o o o o o o # X   o o o o o o o o o o o o o o o o o o o o o o o o o ",
"o o o o o o o o o o o o o o o o o o o o o o o o o o $ o o o o o o o o % # X & o o % o o o o o o o o o o o o o o o o o o o o o o ",
"o o o o o o o o o o o o o o o o o o o o o o o o $ $ $ o o o o o o % o o * X   o o o o o o o o o o o o o o o o o o o o o o o o o ",
"o o o o o o o o o o o o o o o o o o o o o o o = - o ; o o $ o % o o $ : O X > , < o % o o o o o o o o o o o o o o o o o o o o o ",
"o o o o o o o o o o o o o o o o o o o o o o = - 1 ; ; o $ $ % % $ : o o # > > , o < o o o o o o o o o o o o o o o o o o o o o o ",
"O O O O O O O O O O O O O O O O O O O O O 2 3 4 4 O > 5 6 O 3 7 2 3 6 6 > 8 , , > * O O O O O O O O O O O O O O O O O O O O O O ",
"X X X X X X X X X X X X X X X X X X X X 9 0 q q 9 w > e r t y u r > X i X , , , , X X X X X X X X X X X X X X X X X X X X X X X ",
"                                . X     p a s d w f e g > h j d k l > > z , 8 p ,                                         . X   ",
"o o o o o o o o o o o o o o o o O X   o x x = > c v b n 8 x m l > 8 > > , , M o o o o o o o o o o o o o o o o o o o o o o O X   ",
"o o o o o o o o o o o o o o o o O X   $ x < > b N g B V C Z A S D g > k , F G o < < o o o o o o o o o o o o o o o o o o o O X   ",
"o o o o o o o o o o o o o o o o O X   % H , F J > > > c K A > L P > 8 > > $ o o o o o o o o o o o o o o o o o o o o o o o O X   ",
"o o o o o o o o o o o o o o o o O X   ; I , > > > > > > U > > > V Y D T R E $ o o o o o o o o o o o o o o o o o o o o o o O X   ",
"o o o o o o o o o o o o o o o o O X   W Q , > > , , 8 > 8 > > > > k ! D B ; $ o o o o o o o o o o o o o o o o o o o o o o O X   ",
"o o o o o o o o o o o o o o o o O X   ; > 8 w > V 8 ~ 8 ^ > > 8 > > ! V g F G o o o o o o o o o o o o o o o o o o o o o o O X   ",
"o o o o o o o o o o o o o o o o O X   : > F / > > 8 8 T U ( > 8 > V V > > W o % o o o o o o o o o o o o o o o o o o o o o O X   ",
"o o o o o o o o o o o o o o o o O X ) % ; > > F F > F K F k F > _ B ^ w F ` o $ % o o o o o o o o o o o o o o o o o o o o O X   ",
"o o o o o o o o o o o o o o o o O X & o > , > > 8 > F > > > ' ' ] [ F F > o < $ % o o o o o o o o o o o o o o o o o o o o O X   ",
"o o o o o o o o o o o o o o o o O X   ; : , > > > F V > > > F F ^ ] ] { T > ; } $ % o o o o o o o o o o o o o o o o o o o O X   ",
"O O O O O O O O O O O O O O O O O X O 6 3 , > > > 8 > > , > > F > > > > > > > I 7 O O O O O O O O O O O O O O O O O O O O O X + ",
"X X X X X X X X X X X X X X X X X X X r t | F > >  .> > , > > > > > > > > > > > ..X X X X X X X X X X X X X X X X X X X X X X X ",
"  . X                                 )   a a > k e c > , V 8 > F 8 F , > > > a   . X                                           ",
"o O X   o o o o o o o o o o o o o o o o o ; W ' X.[ o.k , O.V > > F , F > > F +.% O X   o o o o o o o o o o o o o o o o o o o o ",
"o O X   o o o o o o o o o o o o o o o o o o o $ < @.#.$.%.&., , > , , F F > : ; o O X   o o o o o o o o o o o o o o o o o o o o ",
"o O X   o o o o o o o o o o o o o o o o o o o o o o % *.=.-.V V I $ > > > > > ;.< O X   o o o o o o o o o o o o o o o o o o o o ",
"o O X   o o o o o o o o o o o o o o o o o o o o o o o o o o o o % % , > > > , , , O X   o o o o o o o o o o o o o o o o o o o o ",
"o O X   o o o o o o o o o o o o o o o o o o o o o o o o o o o o < o o , > , +., , O X   o o o o o o o o o o o o o o o o o o o o ",
"o O X   o o o o o o o o o o o o o o o o o o o o o o o o o o o o o o < < :., o o o O X   o o o o o o o o o o o o o o o o o o o o ",
"o O X   o o o o o o o o o o o o o o o o o o o o o o o o o o o o o o o o % o < < o O X   o o o o o o o o o o o o o o o o o o o o ",
"o O X   o o o o o o o o o o o o o o o o o o o o o o o o o o o o o o o o o o o o o O X   o o o o o o o o o o o o o o o o o o o o ",
"o O X   o o o o o o o o o o o o o o o o o o o o o o o o o o o o o o o o o o o o o O X   o o o o o o o o o o o o o o o o o o o o ",
"o O X   o o o o o o o o o o o o o o o o o o o o o o o o o o o o o o o o o o o o o O X   o o o o o o o o o o o o o o o o o o o o ",
"o O X   o o o o o o o o o o o o o o o o o o o o o o o o o o o o o o o o o o o o o O X   o o o o o o o o o o o o o o o o o o o o ",
"O O X + O O O O O O O O O O O O O O O O O O O O O O O O O O O O O O O O O O O O O O X + O O O O O O O O O O O O O O O O O O O O ",
"X X X X X X X X X X X X X X X X X X X X X X X X X X X X X X X X X X X X X X X X X X X X X X X X X X X X X X X X X X X X X X X X ",
"                                                            . X                                                                 ",
"o o o o o o o o o o o o o o o o o o o o o o o o o o o o o o O X   o o o o o o o o o o o o o o o o o o o o o o o o o o o o o o o ",
"o o o o o o o o o o o o o o o o o o o o o o o o o o o o o o O X   o o o o o o o o o o o o o o o o o o o o o o o o o o o o o o o ",
"o o o o o o o o o o o o o o o o o o o o o o o o o o o o o o O X   o o o o o o o o o o o o o o o o o o o o o o o o o o o o o o o ",
"o o o o o o o o o o o o o o o o o o o o o o o o o o o o o o O X   o o o o o o o o o o o o o o o o o o o o o o o o o o o o o o o ",
"o o o o o o o o o o o o o o o o o o o o o o o o o o o o o o O X   o o o o o o o o o o o o o o o o o o o o o o o o o o o o o o o ",
"o o o o o o o o o o o o o o o o o o o o o o o o o o o o o o O X   o o o o o o o o o o o o o o o o o o o o o o o o o o o o o o o ",
"o o o o o o o o o o o o o o o o o o o o o o o o o o o o o o O X   o o o o o o o o o o o o o o o o o o o o o o o o o o o o o o o ",
"o o o o o o o o o o o o o o o o o o o o o o o o o o o o o o O X   o o o o o o o o o o o o o o o o o o o o o o o o o o o o o o o ",
"o o o o o o o o o o o o o o o o o o o o o o o o o o o o o o O X   o o o o o o o o o o o o o o o o o o o o o o o o o o o o o o o ",
"o o o o o o o o o o o o o o o o o o o o o o o o o o o o o o O X   o o o o o o o o o o o o o o o o o o o o o o o o o o o o o o o ",
"o o o o o o o o o o o o o o o o o o o o o o o o o o o o o o O X   o o o o o o o o o o o o o o o o o o o o o o o o o o o o o o o ",
"o o o o o o o o o o o o o o o o o o o o o o o o o o o o o o O X   o o o o o o o o o o o o o o o o o o o o o o o o o o o o o o o ",
"O O O O O O O O O O O O O O O O O O O O O O O O O O O O O O O X + O O O O O O O O O O O O O O O O O O O O O O O O O O O O O O O ",
"X X X X X X X X X X X X X X X X X X X X X X X X X X X X X X X X X X X X X X X X X X X X X X X X X X X X X X X X X X X X X X X X "
};
