/* XPM */
static char *result[] = {
/* columns rows colors chars-per-pixel */
"64 64 4 1 ",
"  c #9C5A3C",
". c #6D3E29",
"X c #4C2B1C",
"o c black",
/* pixels */
"                                                                ",
"                                                                ",
"  ............................................................  ",
"  .XXXXXXXXXXXXXXXXXXXXXXXXXXXXXXXXXXXXXXXXXXXXXXXXXXXXXXXXXX.  ",
"  .XooXooXooXooXooXooXooXooXooXooXooXooXooXooXooXooXooXooXooX.  ",
"  .XooXooXooXooXooXooXooXooXooXooXooXooXooXooXooXooXooXooXooX.  ",
"  .XXXXXXXXXXXXXXXXXXXXXXXXXXXXXXXXXXXXXXXXXXXXXXXXXXXXXXXXXX.  ",
"  .XooXooXooXooXooXooXooXooXooXooXooXooXooXooXooXooXooXooXooX.  ",
"  .XooXooXooXooXooXooXooXooXooXooXooXooXooXooXooXooXooXooXooX.  ",
"  .XXXXXXXXXXXXXXXXXXXXXXXXXXXXXXXXXXXXXXXXXXXXXXXXXXXXXXXXXX.  ",
"  .XooXooXooXooXooXooXooXooXooXooXooXooXooXooXooXooXooXooXooX.  ",
"  .XooXooXooXooXooXooXooXooXooXooXooXooXooXooXooXooXooXooXooX.  ",
"  .XXXXXXXXXXXXXXXXXXXXXXXXXXXXXXXXXXXXXXXXXXXXXXXXXXXXXXXXXX.  ",
"  .XooXooXooXooXooXooXooXooXooXooXooXooXooXooXooXooXooXooXooX.  ",
"  .XooXooXooXooXooXooXooXooXooXooXooXooXooXooXooXooXooXooXooX.  ",
"  .XXXXXXXXXXXXXXXXXXXXXXXXXXXXXXXXXXXXXXXXXXXXXXXXXXXXXXXXXX.  ",
"  .XooXooXooXooXooXooXooXooXooXooXooXooXooXooXooXooXooXooXooX.  ",
"  .XooXooXooXooXooXooXooXooXooXooXooXooXooXooXooXooXooXooXooX.  ",
"  .XXXXXXXXXXXXXXXXXXXXXXXXXXXXXXXXXXXXXXXXXXXXXXXXXXXXXXXXXX.  ",
"  .XooXooXooXooXooXooXooXooXooXooXooXooXooXooXooXooXooXooXooX.  ",
"  .XooXooXooXooXooXooXooXooXooXooXooXooXooXooXooXooXooXooXooX.  ",
"  .XXXXXXXXXXXXXXXXXXXXXXXXXXXXXXXXXXXXXXXXXXXXXXXXXXXXXXXXXX.  ",
"  .XooXooXooXooXooXooXooXooXooXooXooXooXooXooXooXooXooXooXooX.  ",
"  .XooXooXooXooXooXooXooXooXooXooXooXooXooXooXooXooXooXooXooX.  ",
"  .XXXXXXXXXXXXXXXXXXXXXXXXXXXXXXXXXXXXXXXXXXXXXXXXXXXXXXXXXX.  ",
"  .XooXooXooXooXooXooXooXooXooXooXooXooXooXooXooXooXooXooXooX.  ",
"  .XooXooXooXooXooXooXooXooXooXooXooXooXooXooXooXooXooXooXooX.  ",
"  .XXXXXXXXXXXXXXXXXXXXXXXXXXXXXXXXXXXXXXXXXXXXXXXXXXXXXXXXXX.  ",
"  .XooXooXooXooXooXooXooXooXooXooXooXooXooXooXooXooXooXooXooX.  ",
"  .XooXooXooXooXooXooXooXooXooXooXooXooXooXooXooXooXooXooXooX.  ",
"  .XXXXXXXXXXXXXXXXXXXXXXXXXXXXXXXXXXXXXXXXXXXXXXXXXXXXXXXXXX.  ",
"  .XooXooXooXooXooXooXooXooXooXooXooXooXooXooXooXooXooXooXooX.  ",
"  .XooXooXooXooXooXooXooXooXooXooXooXooXooXooXooXooXooXooXooX.  ",
"  .XXXXXXXXXXXXXXXXXXXXXXXXXXXXXXXXXXXXXXXXXXXXXXXXXXXXXXXXXX.  ",
"  .XooXooXooXooXooXooXooXooXooXooXooXooXooXooXooXooXooXooXooX.  ",
"  .XooXooXooXooXooXooXooXooXooXooXooXooXooXooXooXooXooXooXooX.  ",
"  .XXXXXXXXXXXXXXXXXXXXXXXXXXXXXXXXXXXXXXXXXXXXXXXXXXXXXXXXXX.  ",
"  .XooXooXooXooXooXooXooXooXooXooXooXooXooXooXooXooXooXooXooX.  ",
"  .XooXooXooXooXooXooXooXooXooXooXooXooXooXooXooXooXooXooXooX.  ",
"  .XXXXXXXXXXXXXXXXXXXXXXXXXXXXXXXXXXXXXXXXXXXXXXXXXXXXXXXXXX.  ",
"  .XooXooXooXooXooXooXooXooXooXooXooXooXooXooXooXooXooXooXooX.  ",
"  .XooXooXooXooXooXooXooXooXooXooXooXooXooXooXooXooXooXooXooX.  ",
"  .XXXXXXXXXXXXXXXXXXXXXXXXXXXXXXXXXXXXXXXXXXXXXXXXXXXXXXXXXX.  ",
"  .XooXooXooXooXooXooXooXooXooXooXooXooXooXooXooXooXooXooXooX.  ",
"  .XooXooXooXooXooXooXooXooXooXooXooXooXooXooXooXooXooXooXooX.  ",
"  .XXXXXXXXXXXXXXXXXXXXXXXXXXXXXXXXXXXXXXXXXXXXXXXXXXXXXXXXXX.  ",
"  .XooXooXooXooXooXooXooXooXooXooXooXooXooXooXooXooXooXooXooX.  ",
"  .XooXooXooXooXooXooXooXooXooXooXooXooXooXooXooXooXooXooXooX.  ",
"  .XXXXXXXXXXXXXXXXXXXXXXXXXXXXXXXXXXXXXXXXXXXXXXXXXXXXXXXXXX.  ",
"  .XooXooXooXooXooXooXooXooXooXooXooXooXooXooXooXooXooXooXooX.  ",
"  .XooXooXooXooXooXooXooXooXooXooXooXooXooXooXooXooXooXooXooX.  ",
"  .XXXXXXXXXXXXXXXXXXXXXXXXXXXXXXXXXXXXXXXXXXXXXXXXXXXXXXXXXX.  ",
"  .XooXooXooXooXooXooXooXooXooXooXooXooXooXooXooXooXooXooXooX.  ",
"  .XooXooXooXooXooXooXooXooXooXooXooXooXooXooXooXooXooXooXooX.  ",
"  .XXXXXXXXXXXXXXXXXXXXXXXXXXXXXXXXXXXXXXXXXXXXXXXXXXXXXXXXXX.  ",
"  .XooXooXooXooXooXooXooXooXooXooXooXooXooXooXooXooXooXooXooX.  ",
"  .XooXooXooXooXooXooXooXooXooXooXooXooXooXooXooXooXooXooXooX.  ",
"  .XXXXXXXXXXXXXXXXXXXXXXXXXXXXXXXXXXXXXXXXXXXXXXXXXXXXXXXXXX.  ",
"  .XooXooXooXooXooXooXooXooXooXooXooXooXooXooXooXooXooXooXooX.  ",
"  .XooXooXooXooXooXooXooXooXooXooXooXooXooXooXooXooXooXooXooX.  ",
"  .XXXXXXXXXXXXXXXXXXXXXXXXXXXXXXXXXXXXXXXXXXXXXXXXXXXXXXXXXX.  ",
"  ............................................................  ",
"                                                                ",
"                                                                "
};
