/* XPM */
static char *result[] = {
/* columns rows colors chars-per-pixel */
"64 64 13 1 ",
"  c #CB9C78",
". c #906E55",
"X c #823D1F",
"o c #B5713E",
"O c black",
"+ c #B4B4B4",
"@ c #464646",
"# c #7EE3FC",
"$ c #7E4F2B",
"% c #A8E61D",
"& c #990030",
"* c #ED1C24",
"= c #A5836A",
/* pixels */
"     .X                                              .X         ",
"ooOOOOOOOOOOOOOOOOOOOOOOOOOOOOOOOOOOOOOOOOOOOOOOOOOOOOOOOOOOOOoo",
"ooO++++++++++++++++++++++++++++++++++++++++++++++++++++++++++Ooo",
"ooO+@++++++++++++++++++++++++++++++++++++++++++++++++++++++@+Ooo",
"ooO+++++++++++++++++++++++++++++++++++++OOOOOOOOOOOOOOOOOOO++Ooo",
"ooO+++++++++++++++++++++++++++++++++++++O#################O++Ooo",
"ooO++OOOO++++++OOOOOO++OOOOOO++OOOOOO+++O#OOOOOOO#########O++Ooo",
"$$O++OOOO++++++OOOOOO++OOOOOO++OOOOOO+++O#O%O%O%OO########O++O$$",
"XXO++OO++OO++++OO++OO++OO++++++OO+++++++O#O%O%O%OO########O++OXX",
"  O++OO++OO++++OO++OO++OO++++++OO+++++++O#OOOOOOO###&&&###O++O  ",
"ooO++OOOOOOOO++OOOOOO++OOOOOO++OOOOOO+++O##########&***&##O++Ooo",
"ooO++OOOOOOOO++OOOOOO++OOOOOO++OOOOOO+++O#OOOOOOO##&*O*&##O++Ooo",
"ooO++OO++++OO++OO++OO++++++OO++OO+++++++O#OOOOO%O##&***&##O++Ooo",
"ooO++OO++++OO++OO++OO++++++OO++OO+++++++O#OOO%O%O###&&&###O++Ooo",
"ooO++OOOOOOOO++OO++OO++OOOOOO++OOOOOO+++O#O%O%O%O#########O++Ooo",
"ooO++OOOOOOOO++OO++OO++OOOOOO++OOOOOO+++O#OOOOOOO#########O++Ooo",
"ooO+++++++++++++++++++++++++++++++++++++O#################O++Ooo",
"ooO+++++++++++++++++++++++++++++++++++++OOOOOOOOOOOOOOOOOOO++Ooo",
"ooO+@++++++++++++++++++++++++++++++++++++++++++++++++++++++@+Ooo",
"ooO++++++++++++++++++++++++++++++++++++++++++++++++++++++++++Ooo",
"$$OOOOOOOOOOOOOOOOOOOOOOOOOOOOOOOOOOOOOOOOOOOOOOOOOOOOOOOOOOOO$$",
"XXXXXXXXXXXXXXXXXXXXXO++++++++++++++++++++OXXXXXXXXXXXXXXXXXXXXX",
"                .X   O++@++++++++++++++@++O                  .X ",
"oooooooooooooooo$X oooO++++++++++++++++++Oooooooooooooooooooo$X ",
"oooooooooooooooo$X ooooO++++++++++++++++Ooooooooooooooooooooo$X ",
"oooooooooooooooo$X ooooO++@++++++++++@++Ooooooooooooooooooooo$X ",
"oooooooooooooooo$X oooooO++++++++++++++Oooooooooooooooooooooo$X ",
"oooooooooooooooo$X oooooOOOOOOOOOOOOOOOOooooooooooooooooooooo$X ",
"oooooooooooooooo$X OOOOOO++++++++++++++OOOOOooooooooooooooooo$X ",
"oooooooooooooooOOOO++++++++++++@@+++++++++++OOOOooooooooooooo$X ",
"oooooooooooooOO+++++++++++++++++++++++++++++++++OOooooooooooo$X ",
"ooooooooooooO++++++++++++OOOOOOOOOOOOOO+++++++++++Ooooooooooo$X ",
"oooooooooooO++++++++++OOO++++++++++++++OOO+++++++++Oooooooooo$X ",
"$$$$$$$$$$O++++++++++O++++++++++++++++++++O+++++++++O$$$$$$$$$X=",
"XXXXXXXXXXO+@@++++++O++++++++++++++++++++++O+++++@@+OXXXXXXXXXXX",
" .X       O++++++++++O++++++++++++++++++++O+++++++++O           ",
"o$X ooooooOO++++++++++OOO++++++++++++++OOO+++++++++OOooooooooooo",
"o$X ooooooO@O++++++++++++OOOOOOOOOOOOOO+++++++++++O@Oooooooooooo",
"o$X ooooooO@@OO+++++++++++++++++++++++++++++++++OO@@Oooooooooooo",
"o$X oooooooO@@@OOOO++++++++++++@@+++++++++++OOOO@@@Ooooooooooooo",
"o$X ooooooooO@@@@@@OOOOO+++++++++++++++OOOOO@@@@@@Oooooooooooooo",
"o$X oooooooooOO@@@@@@@@@OOOOOOOOOOOOOOO@@@@@@@@@OOoooooooooooooo",
"o$X oooooooooooOOOO@@@@@@@@@@@@@@@@@@@@@@@@@OOOOoooooooooooooooo",
"o$X oooooooooooooooOOOOO@@@@@@@@@@@@@@@OOOOOoooooooooooooooooooo",
"o$X ooooooooooooooooooooOOOOOOOOOOOOOOOoo$X oooooooooooooooooooo",
"o$X ooooooooooooooooooooooooooooooooooooo$X oooooooooooooooooooo",
"o$X ooooooooooooooooooooooooooooooooooooo$X oooooooooooooooooooo",
"$$X=$$$$$$$$$$$$$$$$$$$$$$$$$$$$$$$$$$$$$$X=$$$$$$$$$$$$$$$$$$$$",
"XXXXXXXXXXXXXXXXXXXXXXXXXXXXXXXXXXXXXXXXXXXXXXXXXXXXXXXXXXXXXXXX",
"                              .X                                ",
"oooooooooooooooooooooooooooooo$X ooooooooooooooooooooooooooooooo",
"oooooooooooooooooooooooooooooo$X ooooooooooooooooooooooooooooooo",
"oooooooooooooooooooooooooooooo$X ooooooooooooooooooooooooooooooo",
"oooooooooooooooooooooooooooooo$X ooooooooooooooooooooooooooooooo",
"oooooooooooooooooooooooooooooo$X ooooooooooooooooooooooooooooooo",
"oooooooooooooooooooooooooooooo$X ooooooooooooooooooooooooooooooo",
"oooooooooooooooooooooooooooooo$X ooooooooooooooooooooooooooooooo",
"oooooooooooooooooooooooooooooo$X ooooooooooooooooooooooooooooooo",
"oooooooooooooooooooooooooooooo$X ooooooooooooooooooooooooooooooo",
"oooooooooooooooooooooooooooooo$X ooooooooooooooooooooooooooooooo",
"oooooooooooooooooooooooooooooo$X ooooooooooooooooooooooooooooooo",
"oooooooooooooooooooooooooooooo$X ooooooooooooooooooooooooooooooo",
"$$$$$$$$$$$$$$$$$$$$$$$$$$$$$$$X=$$$$$$$$$$$$$$$$$$$$$$$$$$$$$$$",
"XXXXXXXXXXXXXXXXXXXXXXXXXXXXXXXXXXXXXXXXXXXXXXXXXXXXXXXXXXXXXXXX"
};
