/* XPM */
static char *result[] = {
/* columns rows colors chars-per-pixel */
"64 64 12 1 ",
"  c #CB9C78",
". c #906E55",
"X c #823D1F",
"o c #B5713E",
"O c #7E4F2B",
"+ c #A5836A",
"@ c black",
"# c #7EE3FC",
"$ c #9C5A3C",
"% c #823615",
"& c #AB522C",
"* c #631B0B",
/* pixels */
"     .X                                              .X         ",
"oooooOX oooooooooooooooooooooooooooooooooooooooooooooOX oooooooo",
"oooooOX oooooooooooooooooooooooooooooooooooooooooooooOX oooooooo",
"oooooOX oooooooooooooooooooooooooooooooooooooooooooooOX oooooooo",
"oooooOX oooooooooooooooooooooooooooooooooooooooooooooOX oooooooo",
"oooooOX oooooooooooooooooooooooooooooooooooooooooooooOX oooooooo",
"oooooOX oooooooooooooooooooooooooooooooooooooooooooooOX oooooooo",
"OOOOOOX+OOOOOOOOOOOOOOOOOOOOOOOOOOOOOOOOOOOOOOOOOOOOOOX+OOOOOOOO",
"XXXXXXXXXXXXXXXXXXXXXXXXXXXXXXXXXXXXXXXXXXXXXXXXXXXXXXXXXXXXXXXX",
"                                    .X                          ",
"ooooooooooooooooooooooooooooooooooooOX ooooooooooooooooooooooooo",
"oooooooooooooooooooooooooooooooo@@ooOX ooooooooooooooooooooooooo",
"oooooooooooooooooooooooooooooo##@@##OX ooooooooooooooooooooooooo",
"oooooooooooooooooooooooooooooo##@@##OX ooooooooooooooooooooooooo",
"ooooooooooooooooooooooooooooooooooooOX ooooooooooooooooooooooooo",
"ooooooooooooooooooooooooooooooooooooOX ooooooooooooooooooooooooo",
"ooooooooooooooooooooooooooooooooooooOX ooooooooooooooooooooooooo",
"ooooooooooooooooooooooooooooooooooooOX ooooooooooooooooooooooooo",
"ooooooooooooooooooooooooooooooooooooOX ooooooooooooooooooooooooo",
"ooooooooooooooooooooooooooooooooooooOX ooooooooooooooooooooooooo",
"OOOOOOOOOOOOOOOOOOOOOOOOOOOOOOOOOOOOOX+OOOOOOOOOOOOOOOOOOOOOOOOO",
"XXXXXXXXXXXXXXXXXXXXXXXXXXXXXXXXXXXXXXXXXXXXXXXXXXXXXXXXXXXXXXXX",
"                .X                                           .X ",
"ooooooooooooooooOX ooo@@oooooooooooooooooooooooooooooooooooooOX ",
"ooooooooooooooooOX o##@@##oooooooo@@@ooooooooooooooooooooooooOX ",
"ooooooooooooooooOX o##@@##oooooo@@$%@ooooooooooooooooooooooooOX ",
"ooooooooooooooooOX ooooooooooooo@$%&@ooooooooooooooooooooooooOX ",
"ooooooooooooooooOX oooooooooo@@@@$$%@ooooooooooooooooooooooooOX ",
"ooooooooooooooooOX oooooooo@@$$$@@@@@@oooooooooooooooooooooooOX ",
"ooooooooooooooooOX ooooooo@$$%%%******@ooooooooooooooooooooooOX ",
"ooooooooooooooooOX ooooo@@@@$$$%&%%%@@@ooooooooooooooooooooooOX ",
"ooooooooooooooooOX ooo@@$$%%@@@@@@@@**%@@ooooooooooooooooooooOX ",
"ooooooooooooooooOX oo@$$%%%%%*******%%%%%@ooooo@@ooooooooooooOX ",
"OOOOOOOOOOOOOOOOOXOOO@$%%%&%%%%%%%%%%%&%%@OOO##@@##OOOOOOOOOOOX+",
"XXXXXXXXXXXXXXXXXXXXX@$$$%%%%&%%%&&%%%%%%@XXX##@@##XXXXXXXXXXXXX",
" .X                 @@@@$$$%&&&%%%%%%%@@@.X                     ",
"oOX oooooooooooooo@@$$$%@@@%%%%%%%%%@@***@@ oooooooooooooooooooo",
"oOX ooooooooooooo@$$%%%%%%%@@@@@@@@@**%%%%%@oooooooooooooooooooo",
"oOX oooooooooooo@$$%%%%%&&%%********%%%&%%%%@ooooooooooooooooooo",
"oOX ooooooooooooo@$$$%&%%%%%%%%%%&%%&%%%%%%@oooooooooooooooooooo",
"oOX oooooooooo@@@%@@$%%%%%&&%%%%%%%%%%%%%@@@@ooooooooooooooooooo",
"oOX oooooooo@@$$$%%%@@@@%%%%%%%%%%%%%@@@@****@@ooooooooooooooooo",
"oOX ooooooo@$$%%%%%%%%%%@@@@@@@@@@@@@****%%%%%%@oooooooooooooooo",
"oOX ooooooo@$%%%%%&%%%%%%%************%%%&%%%%%@oooooooooooooooo",
"oOX ooooooo@$$$%%%%&&%&%%%%%%%%%%%%%%%%%%%%%%%%@oooooooooooooooo",
"oOX oooooooo@@$$$$%%%%%%%%%%&&&%%%%&%%%%%%%%%@@ooooooooooooooooo",
"oOX oooooooooo@@@$$$$$%%%%%%%%%%%%%%%%%%%%@@@ooooooooooooooooooo",
"OOX+OOOOOOOOOOOOO@@@@@%%%%%%%%%%%%%%%@@@@@X+OOOOOOOOOOOOOOOOOOOO",
"XXXXXXXXXXXXXXXXXXXXXX@@@@@@@@@@@@@@@XXXXXXXXXXXXXXXXXXXXXXXXXXX",
"                              .X                                ",
"ooooooooooooooooooooooooooooooOX ooooooooooooooooooooooooooooooo",
"ooooooooooooooooooooooooooooooOX ooooooooooooooooooooooooooooooo",
"ooooooooooooooooooooooooooooooOX ooooooooooooooooooooooooooooooo",
"ooooooooooooooooooooooooooooooOX ooooooooooooooooooooooooooooooo",
"ooooooooooooooooooooooooooooooOX ooooooooooooooooooooooooooooooo",
"ooooooooooooooooooooooooooooooOX ooooooooooooooooooooooooooooooo",
"ooooooooooooooooooooooooooooooOX ooooooooooooooooooooooooooooooo",
"ooooooooooooooooooooooooooooooOX ooooooooooooooooooooooooooooooo",
"ooooooooooooooooooooooooooooooOX ooooooooooooooooooooooooooooooo",
"ooooooooooooooooooooooooooooooOX ooooooooooooooooooooooooooooooo",
"ooooooooooooooooooooooooooooooOX ooooooooooooooooooooooooooooooo",
"ooooooooooooooooooooooooooooooOX ooooooooooooooooooooooooooooooo",
"OOOOOOOOOOOOOOOOOOOOOOOOOOOOOOOX+OOOOOOOOOOOOOOOOOOOOOOOOOOOOOOO",
"XXXXXXXXXXXXXXXXXXXXXXXXXXXXXXXXXXXXXXXXXXXXXXXXXXXXXXXXXXXXXXXX"
};
