/* XPM */
static char *result[] = {
/* columns rows colors chars-per-pixel */
"64 64 13 1 ",
"  c #CB9C78",
". c #906E55",
"X c #823D1F",
"o c #B5713E",
"O c #7E4F2B",
"+ c black",
"@ c #B4B4B4",
"# c #A5836A",
"$ c #A8E61D",
"% c #7EE3FC",
"& c #808080",
"* c #990030",
"= c #ED1C24",
/* pixels */
"     .X                                              .X         ",
"oooooOX oooooooooooooooooooooooooooooooooooooooooooooOX oooooooo",
"oooooOX oooooooooooooooooooooooooooooooooooooooooooooOX oooooooo",
"oooooOX oooooooooooooooooooooooooooooooooooooooooooooOX oooooooo",
"oooooOX oooooooooooooooooo+++++++++++ooooooooooooooooOX oooooooo",
"oooooOX oooooooooooooo++++@@@@@@@@@@@++++ooooooooooooOX oooooooo",
"oooooOX ooooooooooo+++@@@@@@@@@@@@@@@@@@@+++oooooooooOX oooooooo",
"OOOOOOX#OOOOOOOOO++@@@@@@@@@@@@@@@@@@@@@@@@@++OOOOOOOOX#OOOOOOOO",
"XXXXXXXXXXXXXXXX+@@@@@@@@@@@@@@@@@@@@@@@@@@@@@+XXXXXXXXXXXXXXXXX",
"              ++@@@@@@@@@@@@@$$$$@@@@@@@@@@@@@@++               ",
"ooooooooooooo+@@@@@@@@@@@@@@@@@@@@@@@@@@@@@@@@@@@+oooooooooooooo",
"oooooooooooo+@@@@@@@@@@@@@@@@$$$@@@@@@@@@@@@@@@@@@+ooooooooooooo",
"ooooooooooo+@@@@@@@@@@@@@@@@@@@@@@@@@@@@@@@@@@@@@@@+oooooooooooo",
"oooooooooo+@@@@@@@@@@@@@@@@@@$$@@@@@@@@@@@@@@@@@@@@@+ooooooooooo",
"oooooooooo+@@@@@@@@@@@@@@@@@@@@@@@@@@@@@@@@@@@@@@@@@+ooooooooooo",
"ooooooooo+@@@@@++++@@@@@@@@@@$@@@@@@@@@@@@@@@@@@@@@@@+oooooooooo",
"oooooooo+@@@@@+%%%%+@@@@@@@@@@@@@@@@@@@@@@@@@@@@@@@@@@+ooooooooo",
"oooooooo+@@@@+%%%%%%+@@@@@@@@@@@@@@@@@@@@@@@@@@@@@@@@@+ooooooooo",
"oooooooo+@@@+%%%+%%%%+@@@@@@@@@@@@@@@@@@@@@@@@@@@@@@@@+ooooooooo",
"ooooooo+@@@+%%%%+%%%%%+@@@@@@@@@@@@@@@@@@@@@@@@@@@@@@@@+oooooooo",
"OOOOOOO+@@@+%%%%+%%%%%+@@@@@@@@@@@@@@@@@@@@@@@@@@@@@@@@+OOOOOOOO",
"XXXXXXX+@@@+%%%%+%%%%%+@@@@@@@@@@@@@@@@@@@@@@@@@@@@@@@@+XXXXXXXX",
"       +@@@+%%%%%%%%%%+@@@@@@@@@@@@@@@@@@@@@@@@@@@@@@@@+     .X ",
"ooooooo+@@@+%%%%+%%%%%+@@@@@@@@@@@@@@@@@@@@@@@@@@@@@@@@+oooooOX ",
"ooooooo+@@@+%%%%+%%%%%+@@@@@@@@@@@@@@@@@@@@@@@@@@@@@@@@+oooooOX ",
"ooooooo+@@@+%%%%+%%%%%+@@@@@@@@@@@@@@@@@@@@@@@@@@@@@@@@+oooooOX ",
"ooooooo++@@@+%%%+%%%%+@@@@@@@@@@@@@@@@@@@@@@@@@@@@@@@@++oooooOX ",
"ooooooo++@@@@+%%%%%%+@@@@@@@@@@@@@@@@@@@@@@@@@@@@@@@@@++oooooOX ",
"ooooooo++@@@@@+%%%%+@@@@@@@@@@@@@@@@@@@@@@@@@@@@@@@@@@++oooooOX ",
"ooooooo+&+@@@@@++++@@@@@@@@@@@@@@@@@@@@@@@@@@@@@@@@@@+&+oooooOX ",
"ooooooo+&&+@@@@@@@@@@@@@@@@@@@@@@@@@@@@@@@@@@@@@@@@@+&&+oooooOX ",
"ooooooo+&&+@@@@@@@@@@@@@@@@@@@***@@@@@@@@@@@@@@@@@@@+&&+oooooOX ",
"ooooooo+&&&+@@@@@@@@@@@@@@@@@*===*@@@@@@@@@@@@@@@@@+&&&+oooooOX ",
"OOOOOOO+&&&&+@@@@@@@@@@@@@@@@*=+=*@@@@@@@@@@@@@@@@+&&&&+OOOOOOX#",
"XXXXXXX+&&&&&+@@@@@@@@@@@@@@@*===*@@@@@@@@@@@@@@@+&&&&&+XXXXXXXX",
" .X    +&&&&&&++@@@@@@@@@@@@@@***@@@@@@@@@@@@@@++&&&&&&+        ",
"oOX ooo+&&&&&&&&+@@@@@@@@@@@@@@@@@@@@@@@@@@@@@+&&&&&&&&+oooooooo",
"oOX ooo+&&&&&&&&&++@@@@@@@@@@@@@@@@@@@@@@@@@++&&&&&&&&&+oooooooo",
"oOX ooo+&&&&&&&&&&&+++@@@@@@@@@@@@@@@@@@@+++&&&&&&&&&&&+oooooooo",
"oOX ooo+&&&&&&&&&&&&&&++++@@@@@@@@@@@++++&&&&&&&&&&&&&&+oooooooo",
"oOX ooo+&&&&&&&&&&&&&&&&&&+++++++++++&&&&&&&&&&&&&&&&&+ooooooooo",
"oOX oooo+&&&&&&&&&&&&&&&&&&&&&&&&&&&&&&&&&&&&&&&&&&&&&+ooooooooo",
"oOX ooooo+&&&&&&&&&&&&&&&&&&&&&&&&&&&&&&&&&&&&&&&&&&&+oooooooooo",
"oOX ooooo+&&&&&&&&&&&&&&&&&&&&&&&&&&&&&&&&&&&&&&&&&&+ooooooooooo",
"oOX oooooo+&&&&&&&&&&&&&&&&&&&&&&&&&&&&&&&&&&&&&&&&&+ooooooooooo",
"oOX ooooooo+&&&&&&&&&&&&&&&&&&&&&&&&&&&&&&&&&&&&&&&+oooooooooooo",
"oOX oooooooo+&&&&&&&&&&&&&&&&&&&&&&&&&&&&&&&&&&&&&+ooooooooooooo",
"OOX#OOOOOOOOO+&&&&&&&&&&&&&&&&&&&&&&&&&&&&&&&&&&&+OOOOOOOOOOOOOO",
"XXXXXXXXXXXXXX++&&&&&&&&&&&&&&&&&&&&&&&&&&&&&&&++XXXXXXXXXXXXXXX",
"              +++&&&&&&&&&&&&&&&&&&&&&&&&&&&&&+++               ",
"oooooooooooooo+++++&&&&&&&&&&&&&&&&&&&&&&&&&+++++ooooooooooooooo",
"oooooooooooooo++++o+++&&&&&&&&&&&&&&&&&&&+++o++++ooooooooooooooo",
"ooooooooooooooo++ooooo++++&&&&&&&&&&&++++ooooo++oooooooooooooooo",
"oooooooooooooooooooooooooo+++++++++++ooooooooooooooooooooooooooo",
"ooooooooooooooooooooooooooooooOX ooooooooooooooooooooooooooooooo",
"ooooooooooooooooooooooooooooooOX ooooooooooooooooooooooooooooooo",
"ooooooooooooooooooooooooooooooOX ooooooooooooooooooooooooooooooo",
"ooooooooooooooooooooooooooooooOX ooooooooooooooooooooooooooooooo",
"ooooooooooooooooooooooooooooooOX ooooooooooooooooooooooooooooooo",
"ooooooooooooooooooooooooooooooOX ooooooooooooooooooooooooooooooo",
"ooooooooooooooooooooooooooooooOX ooooooooooooooooooooooooooooooo",
"ooooooooooooooooooooooooooooooOX ooooooooooooooooooooooooooooooo",
"OOOOOOOOOOOOOOOOOOOOOOOOOOOOOOOX#OOOOOOOOOOOOOOOOOOOOOOOOOOOOOOO",
"XXXXXXXXXXXXXXXXXXXXXXXXXXXXXXXXXXXXXXXXXXXXXXXXXXXXXXXXXXXXXXXX"
};
