/* XPM */
static char *result[] = {
/* columns rows colors chars-per-pixel */
"64 64 13 1 ",
"  c #CB9C78",
". c #906E55",
"X c #823D1F",
"o c #B5713E",
"O c #7E4F2B",
"+ c black",
"@ c #A5836A",
"# c #B4B4B4",
"$ c #A8E61D",
"% c #7EE3FC",
"& c #808080",
"* c #990030",
"= c #ED1C24",
/* pixels */
"     .X                                              .X         ",
"oooooOX oooooooooooooooooooooooooooooooooooooooooooooOX oooooooo",
"oooooOX oooooooooooooooooooooooooooooooooooooooooooooOX oooooooo",
"oooooOX oooooooooooooooooooooooooooooooooooooooooooooOX oooooooo",
"oooooOX oooooooooooooooooooooooooooooooooooooooooooooOX oooooooo",
"oooooOX oooooooooooooooooooooooooooooooooooooooooooooOX oooooooo",
"oooooOX oooooooooooooooooo+++++++++++ooooooooooooooooOX oooooooo",
"OOOOOOX@OOOOOOOOOOOOOO++++###########++++OOOOOOOOOOOOOX@OOOOOOOO",
"XXXXXXXXXXXXXXXXXXX+++###################+++XXXXXXXXXXXXXXXXXXXX",
"                 ++#########################++                  ",
"oooooooooooooooo+#############################+ooooooooooooooooo",
"oooooooooooooo++#############$$$$##############++ooooooooooooooo",
"ooooooooooooo+###################################+oooooooooooooo",
"oooooooooooo+################$$$##################+ooooooooooooo",
"ooooooooooo+#######################################+oooooooooooo",
"oooooooooo+##################$$#####################+ooooooooooo",
"oooooooooo+#########################################+ooooooooooo",
"ooooooooo+#####++++##########$#######################+oooooooooo",
"oooooooo+#####+%%%%+##################################+ooooooooo",
"oooooooo+####+%%%%%%+#################################+ooooooooo",
"OOOOOOOO+###+%%%%%%%%+################################+OOOOOOOOO",
"XXXXXXX+###+%%%%+++%%%+################################+XXXXXXXX",
"       +###+%%%%+++%%%+################################+     .X ",
"ooooooo+###+%%%%%%%%%%+################################+oooooOX ",
"ooooooo+###+%%%%%%%%%%+################################+oooooOX ",
"ooooooo+###+%%%%%%%%%%+################################+oooooOX ",
"ooooooo+###+%%%%+++%%%+################################+oooooOX ",
"ooooooo+###+%%%%+++%%%+################################+oooooOX ",
"ooooooo++###+%%%%%%%%+################################++oooooOX ",
"ooooooo++####+%%%%%%+#################################++oooooOX ",
"ooooooo++#####+%%%%+##################################++oooooOX ",
"ooooooo+&+#####++++##################################+&+oooooOX ",
"ooooooo+&&+#########################################+&&+oooooOX ",
"OOOOOOO+&&+###################***###################+&&+OOOOOOX@",
"XXXXXXX+&&&+#################*===*#################+&&&+XXXXXXXX",
" .X    +&&&&+################*=+=*################+&&&&+        ",
"oOX ooo+&&&&&+###############*===*###############+&&&&&+oooooooo",
"oOX ooo+&&&&&&++##############***##############++&&&&&&+oooooooo",
"oOX ooo+&&&&&&&&+#############################+&&&&&&&&+oooooooo",
"oOX ooo+&&&&&&&&&++#########################++&&&&&&&&&+oooooooo",
"oOX ooo+&&&&&&&&&&&+++###################+++&&&&&&&&&&&+oooooooo",
"oOX ooo+&&&&&&&&&&&&&&++++###########++++&&&&&&&&&&&&&&+oooooooo",
"oOX ooo+&&&&&&&&&&&&&&&&&&+++++++++++&&&&&&&&&&&&&&&&&+ooooooooo",
"oOX oooo+&&&&&&&&&&&&&&&&&&&&&&&&&&&&&&&&&&&&&&&&&&&&&+ooooooooo",
"oOX ooooo+&&&&&&&&&&&&&&&&&&&&&&&&&&&&&&&&&&&&&&&&&&&+oooooooooo",
"oOX ooooo+&&&&&&&&&&&&&&&&&&&&&&&&&&&&&&&&&&&&&&&&&&+ooooooooooo",
"oOX oooooo+&&&&&&&&&&&&&&&&&&&&&&&&&&&&&&&&&&&&&&&&&+ooooooooooo",
"OOX@OOOOOOO+&&&&&&&&&&&&&&&&&&&&&&&&&&&&&&&&&&&&&&&+OOOOOOOOOOOO",
"XXXXXXXXXXXX+&&&&&&&&&&&&&&&&&&&&&&&&&&&&&&&&&&&&&+XXXXXXXXXXXXX",
"             +&&&&&&&&&&&&&&&&&&&&&&&&&&&&&&&&&&&+              ",
"oooooooooooooo++&&&&&&&&&&&&&&&&&&&&&&&&&&&&&&&++ooooooooooooooo",
"oooooooooooooo+++&&&&&&&&&&&&&&&&&&&&&&&&&&&&&+++ooooooooooooooo",
"ooooooooooooooo++++&&&&&&&&&&&&&&&&&&&&&&&&&++++oooooooooooooooo",
"ooooooooooooooooooo+++&&&&&&&&&&&&&&&&&&&+++oooooooooooooooooooo",
"oooooooooooooooooooooo++++&&&&&&&&&&&++++ooooooooooooooooooooooo",
"oooooooooooooooooooooooooo+++++++++++ooooooooooooooooooooooooooo",
"ooooooooooooooooooooooooooooooOX ooooooooooooooooooooooooooooooo",
"ooooooooooooooooooooooooooooooOX ooooooooooooooooooooooooooooooo",
"ooooooooooooooooooooooooooooooOX ooooooooooooooooooooooooooooooo",
"ooooooooooooooooooooooooooooooOX ooooooooooooooooooooooooooooooo",
"ooooooooooooooooooooooooooooooOX ooooooooooooooooooooooooooooooo",
"ooooooooooooooooooooooooooooooOX ooooooooooooooooooooooooooooooo",
"OOOOOOOOOOOOOOOOOOOOOOOOOOOOOOOX@OOOOOOOOOOOOOOOOOOOOOOOOOOOOOOO",
"XXXXXXXXXXXXXXXXXXXXXXXXXXXXXXXXXXXXXXXXXXXXXXXXXXXXXXXXXXXXXXXX"
};
