/* XPM */
static char *result[] = {
/* columns rows colors chars-per-pixel */
"64 64 12 1 ",
"  c #CB9C78",
". c #906E55",
"X c #823D1F",
"o c #B5713E",
"O c #7E4F2B",
"+ c #A5836A",
"@ c #5C2500",
"# c #FA5C00",
"$ c #FC97FC",
"% c black",
"& c white",
"* c #53B046",
/* pixels */
"     .X                                              .X         ",
"oooooOX oooooooooooooooooooooooooooooooooooooooooooooOX oooooooo",
"oooooOX oooooooooooooooooooooooooooooooooooooooooooooOX oooooooo",
"oooooOX oooooooooooooooooooooooooooooooooooooooooooooOX oooooooo",
"oooooOX oooooooooooooooooooooooooooooooooooooooooooooOX oooooooo",
"oooooOX oooooooooooooooooooooooooooooooooooooooooooooOX oooooooo",
"oooooOX oooooooooooooooooooooooooooooooooooooooooooooOX oooooooo",
"OOOOOOX+OOOOOOOOOOOOOOOOOOOOOOOOOOOOOOOOOOOOOOOOOOOOOOX+OOOOOOOO",
"XXXXXXXXXXXXXXXXXXXXXXXXXXXXXXXXXXXXXXXXXXXXXXXXXXXXXXXXXXXXXXXX",
"             @             @        .X                          ",
"oooooooooooo@@oooooooooooo@#@oooooooOX ooooooooooooooooooooooooo",
"oooooooooooo@#@oooooooooo@##@oooooooOX ooooooooooooooooooooooooo",
"oooooooooooo@##@oooooooo@##$@oooooooOX ooooooooooooooooooooooooo",
"oooooooooooo@#$$@oooooo@##$$@oooooooOX ooooooooooooooooooooooooo",
"oooooooooooo@#$$@oo@@@@@#$$$@oooooooOX ooooooooooooooooooooooooo",
"oooooooooooo@#$$@@@#####@@$$#@ooooooOX ooooooooooooooooooooooooo",
"oooooooooooo@#$@@#########@@#@ooooooOX ooooooooooooooooooooooooo",
"oooooooooooo@#@#############@@ooooooOX ooooooooooooooooooooooooo",
"oooooooooooo@#@#############@@ooooooOX ooooooooooooooooooooooooo",
"oooooooooooo@@###############@oo%oooOX ooooo@@@@oooooooooooooooo",
"OOOOOOOOOOOO@@###&**###**&###@O%OOOOOX+OOOOO@###@OOOOOOOOOOOOOOO",
"XXXXXXXXXX%X@####*%*###*%*###%%XXXXXXXXXXXX@####@XXXXXXXXXXXXXXX",
"           %%####***###***##%#@            @####@            .X ",
"oooooooooooo@%%############%##@oo%%oooooooo@###@oooooooooooooOX ",
"oooooooooooo@##%%###$$$##%%##%%%%oooooooooo@###@oooooooooooooOX ",
"ooooooooo%%%%%###%%##$##%%%%%#@oooooooooooo@###@oooooooooooooOX ",
"ooooooooooooo@%%%%%%###%%####@ooooooooooooo@###@oooooooooooooOX ",
"ooooooooooooo@#######@#######@@@@@@oooooooo@####@ooooooooooooOX ",
"oooooooooooooo@####@@#@@####@@#####@@ooooooo@###@ooooooooooooOX ",
"oooooooooooooo@############@@########@oooooo@####@oooooooooooOX ",
"ooooooooooooooo@@#########@@##########@oooooo@####@ooooooooooOX ",
"ooooooooooooooooO@@#####@@#############@oooooo@###@ooooooooooOX ",
"ooooooooooooooooOX @@@@@@###############@ooooo@####@oooooooooOX ",
"OOOOOOOOOOOOOOOOOXOO@###################@OOOOOO@###@@OOOOOOOOOX+",
"XXXXXXXXXXXXXXXXXXXX@####################@XXXXXX@###@XXXXXXXXXXX",
" .X                 @####################@X     @####@          ",
"oOX oooooooooooooooo@#####################@ ooooo@####@ooooooooo",
"oOX oooooooooooooooo@#####################@ ooooo@#####@oooooooo",
"oOX oooooooooooooooo@###@#################@ oooooo@####@oooooooo",
"oOX oooooooooooooooo@###@#################@ oooooo@####@oooooooo",
"oOX oooooooooooooooo@##@##################@ oooooo@###@ooooooooo",
"oOX oooooooooooooooo@##@##################@ oooooo@###@ooooooooo",
"oOX ooooooooooooooo@###@#####@@@@#########@ oooooo@###@ooooooooo",
"oOX ooooooooooooooo@###@####@####@########@ ooooo@####@ooooooooo",
"oOX ooooooooooooooo@###@###@######@#######@ oooo@####@oooooooooo",
"oOX ooooooooooooooo@##@@##@########@#####@X oooo@####@oooooooooo",
"oOX ooooooooooooooo@##@@#@###############@X ooo@####@ooooooooooo",
"OOX+OOOOOOOOOOOOOOO@##@O@###############@OX+OO@####@OOOOOOOOOOOO",
"XXXXXXXXXXXXXXXXXXX@##@X@###############@XXXX@####@XXXXXXXXXXXXX",
"                   @##@  @#############@@@@@@####@              ",
"ooooooooooooooooooo@##@ooo@###########@#########@ooooooooooooooo",
"oooooooooooooooo@@@###@oo@@@#########@#######@@@oooooooooooooooo",
"ooooooooooooooo@######@o@###@@#####@@@@@@@@@@ooooooooooooooooooo",
"ooooooooooooooo@######@@######@@@@@ooooooooooooooooooooooooooooo",
"oooooooooooooooo@###@@oo@@@@@@@@@@oooooooooooooooooooooooooooooo",
"ooooooooooooooooo@@@ooooooooooOX ooooooooooooooooooooooooooooooo",
"ooooooooooooooooooooooooooooooOX ooooooooooooooooooooooooooooooo",
"ooooooooooooooooooooooooooooooOX ooooooooooooooooooooooooooooooo",
"ooooooooooooooooooooooooooooooOX ooooooooooooooooooooooooooooooo",
"ooooooooooooooooooooooooooooooOX ooooooooooooooooooooooooooooooo",
"ooooooooooooooooooooooooooooooOX ooooooooooooooooooooooooooooooo",
"ooooooooooooooooooooooooooooooOX ooooooooooooooooooooooooooooooo",
"OOOOOOOOOOOOOOOOOOOOOOOOOOOOOOOX+OOOOOOOOOOOOOOOOOOOOOOOOOOOOOOO",
"XXXXXXXXXXXXXXXXXXXXXXXXXXXXXXXXXXXXXXXXXXXXXXXXXXXXXXXXXXXXXXXX"
};
